<?xml version="1.0" ?><svg viewBox="0 0 32 32" xmlns="http://www.w3.org/2000/svg"><defs><style>.cls-1{fill:#04009a;}.cls-2{fill:#77acf1;}</style></defs><g data-name="5. Smartphone Heart Rate" id="_5._Smartphone_Heart_Rate"><path class="cls-1" d="M16.21,32H5.79A4.8,4.8,0,0,1,1,27.21V4.79A4.8,4.8,0,0,1,5.79,0H16.21A4.8,4.8,0,0,1,21,4.79V5a1,1,0,0,1-2,0V4.79A2.79,2.79,0,0,0,16.21,2H5.79A2.79,2.79,0,0,0,3,4.79V27.21A2.79,2.79,0,0,0,5.79,30H16.21A2.79,2.79,0,0,0,19,27.21V27a1,1,0,0,1,2,0v.21A4.8,4.8,0,0,1,16.21,32Z"/><path class="cls-2" d="M11,28a2,2,0,1,1,2-2A2,2,0,0,1,11,28Zm0-2h0Zm0,0h0Zm0,0h0Zm0,0h0Zm0,0h0Zm0,0h0Zm0,0h0Zm0,0h0Z"/><path class="cls-1" d="M14,6H8A1,1,0,0,1,8,4h6a1,1,0,0,1,0,2Z"/><path class="cls-1" d="M20,24a1,1,0,0,1-.51-.14L18,23A17.18,17.18,0,0,1,12.05,17,7.3,7.3,0,0,1,11,13.24a5.24,5.24,0,0,1,9-3.7l.05.05.05-.05a5.24,5.24,0,0,1,9,3.7A7.3,7.3,0,0,1,28,17,17.18,17.18,0,0,1,22,23l-1.51.91A1,1,0,0,1,20,24ZM16.24,10A3.24,3.24,0,0,0,13,13.24,5.32,5.32,0,0,0,13.76,16,15.34,15.34,0,0,0,19,21.24l1,.59,1-.59A15.34,15.34,0,0,0,26.24,16,5.32,5.32,0,0,0,27,13.24,3.24,3.24,0,0,0,21.47,11l-.76.76a1,1,0,0,1-1.42,0L18.54,11A3.25,3.25,0,0,0,16.24,10Z"/><path class="cls-2" d="M21,19h-.17a1,1,0,0,1-.66-.44l-1.45-2.16L17.06,17.5a3,3,0,0,1-1.67.5H10a1,1,0,0,1,0-2h5.39a1,1,0,0,0,.56-.17l2.5-1.66a1,1,0,0,1,1.38.28l1.42,2.12,2.62-2a3,3,0,0,1,1.8-.6H30a1,1,0,0,1,0,2H25.67a1,1,0,0,0-.6.2L21.6,18.8A1,1,0,0,1,21,19Z"/></g></svg>