<?xml version="1.0" ?><svg viewBox="0 0 32 32" xmlns="http://www.w3.org/2000/svg"><defs><style>.cls-1{fill:#77acf1;}.cls-2{fill:#04009a;}</style></defs><g data-name="35. Heart Rate" id="_35._Heart_Rate"><path class="cls-1" d="M19,26H13a1,1,0,0,1-1-1V23a1,1,0,0,1,1-1h6a1,1,0,0,1,1,1v2A1,1,0,0,1,19,26Zm-5-2h0Z"/><path class="cls-2" d="M31,22V5a3,3,0,0,0-3-3H4A3,3,0,0,0,1,5V22a1,1,0,0,0-1,1v2a5,5,0,0,0,5,5H27a5,5,0,0,0,5-5V23A1,1,0,0,0,31,22ZM3,5A1,1,0,0,1,4,4H28a1,1,0,0,1,1,1V22H3ZM30,25a3,3,0,0,1-3,3H5a3,3,0,0,1-3-3V24H30Z"/><path class="cls-2" d="M16,20a1,1,0,0,1-.51-.14l-2-1.19a13.06,13.06,0,0,1-5-5.37A5,5,0,0,1,15.3,6.53l.7.35.7-.35a5,5,0,0,1,6.77,6.77,13.06,13.06,0,0,1-5,5.37l-2,1.19A1,1,0,0,1,16,20ZM13.05,8A3.05,3.05,0,0,0,10,11a3.1,3.1,0,0,0,.32,1.37A11,11,0,0,0,14.53,17l1.47.88L17.47,17a11,11,0,0,0,4.21-4.54A3.1,3.1,0,0,0,22,11a3,3,0,0,0-4.41-2.72l-1.14.57a1,1,0,0,1-.9,0l-1.14-.57A3.05,3.05,0,0,0,13.05,8Z"/><path class="cls-1" d="M18,15a1,1,0,0,1-.55-.17l-2.06-1.37-.5,1A1,1,0,0,1,14,15H8a1,1,0,0,1,0-2h5.38l.73-1.45a1,1,0,0,1,.63-.52,1,1,0,0,1,.81.14l2.06,1.37.5-1A1,1,0,0,1,19,11h5a1,1,0,0,1,0,2H19.62l-.73,1.45a1,1,0,0,1-.63.52A1.15,1.15,0,0,1,18,15Z"/></g></svg>