<?xml version="1.0" ?><svg viewBox="0 0 32 32" xmlns="http://www.w3.org/2000/svg"><defs><style>.cls-1{fill:#04009a;}.cls-2{fill:#77acf1;}</style></defs><g data-name="24. Drug" id="_24._Drug"><path class="cls-1" d="M23.12,8.71,20.41,6H21a2,2,0,0,0,2-2V2a2,2,0,0,0-2-2H5A2,2,0,0,0,3,2V4A2,2,0,0,0,5,6h.59L2.88,8.71A3,3,0,0,0,2,10.83V29a3,3,0,0,0,3,3H19a1,1,0,0,0,0-2H5a1,1,0,0,1-1-1V27H17a1,1,0,0,0,0-2H4V13H23a1,1,0,0,0,1-1V10.83A3,3,0,0,0,23.12,8.71ZM5,2H21V4H5Zm17,9H4v-.17a1,1,0,0,1,.29-.71L8.41,6h9.18l4.12,4.12a1,1,0,0,1,.29.71Z"/><path class="cls-2" d="M16,18H14V16a1,1,0,0,0-2,0v2H10a1,1,0,0,0,0,2h2v2a1,1,0,0,0,2,0V20h2a1,1,0,0,0,0-2Z"/><path class="cls-2" d="M29,25H21a1,1,0,0,1,0-2h8a1,1,0,0,1,0,2Z"/><path class="cls-1" d="M25,32a5,5,0,0,1-5-5V20a5,5,0,0,1,10,0v7A5,5,0,0,1,25,32Zm0-15a3,3,0,0,0-3,3v7a3,3,0,0,0,6,0V20A3,3,0,0,0,25,17Z"/></g></svg>