<?xml version="1.0" ?><svg viewBox="0 0 32 32" xmlns="http://www.w3.org/2000/svg"><defs><style>.cls-1{fill:#77acf1;}.cls-2{fill:#04009a;}</style></defs><g data-name="23. Herbal" id="_23._Herbal"><path class="cls-1" d="M17,7H14a3.93,3.93,0,0,0-2.85,1.21A5,5,0,0,0,7,6H3A1,1,0,0,0,2,7V9a5,5,0,0,0,5,5h7a4,4,0,0,0,4-4V8A1,1,0,0,0,17,7ZM4,9V8H7a3,3,0,0,1,3,3v1H7A3,3,0,0,1,4,9Zm12,1a2,2,0,0,1-2,2H12V11a2,2,0,0,1,2-2h2Z"/><path class="cls-2" d="M31,12H28.46L29,9.56A5,5,0,0,0,28.24.15a5,5,0,0,0-4.33.92A5,5,0,0,0,22,5a5.13,5.13,0,0,0,1.24,3.32L22.42,12H1a1,1,0,0,0-1,1v4a1,1,0,0,0,1,1H2v3A11,11,0,0,0,13,32h6A11,11,0,0,0,30,21V18h1a1,1,0,0,0,1-1V13A1,1,0,0,0,31,12ZM24.75,7a3,3,0,0,1,.4-4.33,3,3,0,0,1,2.62-.55,3,3,0,0,1,.43,5.64,1.89,1.89,0,0,0-1.13,1.33L26.42,12h-2l.72-3.24A2,2,0,0,0,24.75,7ZM28,21a9,9,0,0,1-9,9H13a9,9,0,0,1-9-9V18H28Zm2-5H2V14H30Z"/><path class="cls-1" d="M18,23H17V22a1,1,0,0,0-2,0v1H14a1,1,0,0,0,0,2h1v1a1,1,0,0,0,2,0V25h1a1,1,0,0,0,0-2Z"/><path class="cls-1" d="M7,4A1,1,0,0,1,7,2H7A1,1,0,0,1,7,4Z"/><path class="cls-1" d="M15,5a1,1,0,0,1,0-2h0a1,1,0,0,1,0,2Z"/><path class="cls-1" d="M11,2a1,1,0,0,1,0-2h0a1,1,0,0,1,0,2Z"/></g></svg>