<?xml version="1.0" ?><svg viewBox="0 0 32 32" xmlns="http://www.w3.org/2000/svg"><defs><style>.cls-1{fill:#04009a;}.cls-2{fill:#77acf1;}</style></defs><g data-name="25. First Aid Kit" id="_25._First_Aid_Kit"><path class="cls-1" d="M30,4H22V3a3,3,0,0,0-3-3H13a3,3,0,0,0-3,3V4H2A2,2,0,0,0,0,6v6a2,2,0,0,0,1,1.72V29a3,3,0,0,0,3,3H28a3,3,0,0,0,3-3V13.72A2,2,0,0,0,32,12V6A2,2,0,0,0,30,4ZM12,3a1,1,0,0,1,1-1h6a1,1,0,0,1,1,1V4H12ZM2,6H30v6H2ZM29,29a1,1,0,0,1-1,1H4a1,1,0,0,1-1-1V14H29Z"/><path class="cls-2" d="M18,28H14a1,1,0,0,1-1-1V25H11a1,1,0,0,1-1-1V20a1,1,0,0,1,1-1h2V17a1,1,0,0,1,1-1h4a1,1,0,0,1,1,1v2h2a1,1,0,0,1,1,1v4a1,1,0,0,1-1,1H19v2A1,1,0,0,1,18,28Zm-3-2h2V24a1,1,0,0,1,1-1h2V21H18a1,1,0,0,1-1-1V18H15v2a1,1,0,0,1-1,1H12v2h2a1,1,0,0,1,1,1Z"/><path class="cls-2" d="M7,16a1,1,0,0,1-1-1V11a1,1,0,0,1,2,0v4A1,1,0,0,1,7,16Z"/><path class="cls-2" d="M25,16a1,1,0,0,1-1-1V11a1,1,0,0,1,2,0v4A1,1,0,0,1,25,16Z"/></g></svg>