<?xml version="1.0" ?><svg viewBox="0 0 32 32" xmlns="http://www.w3.org/2000/svg"><defs><style>.cls-1{fill:#77acf1;}.cls-2{fill:#04009a;}</style></defs><g data-name="18. Shopping" id="_18._Shopping"><path class="cls-1" d="M18,10H17V9a1,1,0,0,0-2,0v1H14a1,1,0,0,0,0,2h1v1a1,1,0,0,0,2,0V12h1a1,1,0,0,0,0-2Z"/><path class="cls-1" d="M22.5,6.94,21.45,5.37A2,2,0,0,0,22,4V2a2,2,0,0,0-2-2H12a2,2,0,0,0-2,2V4a2,2,0,0,0,.55,1.37L9.5,6.94A3,3,0,0,0,9,8.61V17a1,1,0,0,0,2,0V8.61a1,1,0,0,1,.17-.56L12.54,6h6.92l1.37,2.05a1,1,0,0,1,.17.56V17a1,1,0,0,0,2,0V8.61A3,3,0,0,0,22.5,6.94ZM12,2h8V4H12Z"/><path class="cls-2" d="M28,23.82,28.87,18H31a1,1,0,0,0,0-2H1a1,1,0,0,0,0,2H3.13L4,23.82.45,26.17a1,1,0,0,0,1.1,1.66L4.28,26l.36,2.55A4,4,0,0,0,8.6,32H23.4a4,4,0,0,0,4-3.43L27.72,26l2.73,1.81A.94.94,0,0,0,31,28a1,1,0,0,0,.55-1.83Zm-1.85-1.23L19.3,18h7.55ZM5.15,18H12.7L5.81,22.59ZM25.38,28.28a2,2,0,0,1-2,1.72H8.6a2,2,0,0,1-2-1.72l-.5-3.49L16,18.2l9.88,6.59Z"/></g></svg>